<svg width="32" height="32" viewBox="0 0 32 32" fill="none" xmlns="http://www.w3.org/2000/svg">
    <path d="M0 16C0 7.16344 7.16344 0 16 0C24.8366 0 32 7.16344 32 16C32 24.8366 24.8366 32 16 32C7.16344 32 0 24.8366 0 16Z" fill="white"/>
    <path d="M16.0003 24.3337C20.6027 24.3337 24.3337 20.6027 24.3337 16.0003C24.3337 11.398 20.6027 7.66699 16.0003 7.66699C11.398 7.66699 7.66699 11.398 7.66699 16.0003C7.66699 20.6027 11.398 24.3337 16.0003 24.3337Z" stroke="#006999" stroke-width="1.5" stroke-linecap="round" stroke-linejoin="round"/>
    <path d="M13.5752 13.5005C13.7711 12.9435 14.1578 12.4739 14.6668 12.1748C15.1758 11.8756 15.7743 11.7663 16.3562 11.8661C16.9381 11.9659 17.4659 12.2684 17.8461 12.7201C18.2263 13.1718 18.4344 13.7434 18.4335 14.3338C18.4335 16.0005 15.9335 16.8338 15.9335 16.8338" stroke="#006999" stroke-width="1.5" stroke-linecap="round" stroke-linejoin="round"/>
    <path d="M16 20.167H16.0083" stroke="#006999" stroke-width="1.5" stroke-linecap="round" stroke-linejoin="round"/>
</svg>
