<svg width="20" height="20" viewBox="0 0 20 20" fill="none" xmlns="http://www.w3.org/2000/svg">
    <path d="M8.56946 13.9603C8.27779 13.9603 7.98617 13.8853 7.717 13.7345C7.16117 13.4228 6.82945 12.857 6.82945 12.2204V7.78027C6.82945 7.14361 7.16117 6.57786 7.717 6.26619C8.27617 5.95369 8.93287 5.96621 9.47787 6.30037L13.2104 8.5837C13.7079 8.8887 14.0054 9.41781 14.0054 10.0011C14.0054 10.5845 13.7079 11.1136 13.2104 11.4186L9.47787 13.7019C9.19536 13.8736 8.88279 13.9603 8.56946 13.9603ZM8.57119 7.29199C8.46119 7.29199 8.37286 7.33106 8.32786 7.35689C8.25286 7.39856 8.07863 7.52444 8.07863 7.78027V12.2204C8.07863 12.477 8.25286 12.6021 8.32786 12.6438C8.40369 12.6863 8.6028 12.7711 8.8253 12.6344L12.5578 10.3511C12.7361 10.2419 12.7554 10.0695 12.7554 10.0003C12.7554 9.93116 12.7361 9.75872 12.5578 9.65039L8.8253 7.36707C8.73446 7.3104 8.64785 7.29199 8.57119 7.29199ZM10.0003 18.9587C5.06033 18.9587 1.04199 14.9403 1.04199 10.0003C1.04199 5.06033 5.06033 1.04199 10.0003 1.04199C14.9403 1.04199 18.9587 5.06033 18.9587 10.0003C18.9587 14.9403 14.9403 18.9587 10.0003 18.9587ZM10.0003 2.29199C5.74949 2.29199 2.29199 5.74949 2.29199 10.0003C2.29199 14.2512 5.74949 17.7087 10.0003 17.7087C14.2512 17.7087 17.7087 14.2512 17.7087 10.0003C17.7087 5.74949 14.2512 2.29199 10.0003 2.29199Z" fill="#006999"/>
</svg>
